<svg width="141" height="140" viewBox="0 0 141 140" fill="none" xmlns="http://www.w3.org/2000/svg">
<rect x="0.5" width="140" height="140" rx="70" fill="#5B86E5" fill-opacity="0.2"/>
<path d="M74.2486 46.3354H66.7609C66.0587 46.3354 65.4652 46.9388 65.4652 47.6312C65.4652 48.3236 66.0686 48.9269 66.7609 48.9269H74.2486C74.9509 48.9269 75.5443 48.3236 75.5443 47.6312C75.4454 46.83 74.842 46.3354 74.2486 46.3354Z" fill="black"/>
<path d="M74.2486 53.8228H66.7609C66.0587 53.8228 65.4652 54.4261 65.4652 55.1185C65.4652 55.8109 66.0686 56.4142 66.7609 56.4142H74.2486C74.9509 56.4142 75.5443 55.8109 75.5443 55.1185C75.4454 54.3173 74.842 53.8228 74.2486 53.8228Z" fill="black"/>
<path d="M74.2486 61.3098H66.7609C66.0587 61.3098 65.4652 61.9132 65.4652 62.6056C65.4652 63.2979 66.0686 63.9013 66.7609 63.9013H74.2486C74.9509 63.9013 75.5443 63.2979 75.5443 62.6056C75.4454 61.8044 74.842 61.3098 74.2486 61.3098Z" fill="black"/>
<path d="M74.2486 68.7981H66.7609C66.0587 68.7981 65.4652 69.4015 65.4652 70.0938C65.4652 70.7862 66.0686 71.3896 66.7609 71.3896H74.2486C74.9509 71.3896 75.5443 70.7862 75.5443 70.0938C75.4454 69.2927 74.842 68.7981 74.2486 68.7981Z" fill="black"/>
<path d="M74.2486 76.2854H66.7609C66.0587 76.2854 65.4652 76.8888 65.4652 77.5811C65.4652 78.2735 66.0686 78.8769 66.7609 78.8769H74.2486C74.9509 78.8769 75.5443 78.2735 75.5443 77.5811C75.5443 76.8888 74.842 76.2854 74.2486 76.2854Z" fill="black"/>
<path d="M74.2486 83.7737H66.7609C66.0587 83.7737 65.4652 84.377 65.4652 85.0694C65.4652 85.7618 66.0686 86.3652 66.7609 86.3652H74.2486C74.9509 86.3652 75.5443 85.7618 75.5443 85.0694C75.4454 84.2682 74.842 83.7737 74.2486 83.7737Z" fill="black"/>
<path d="M74.2486 91.261H66.7609C66.0587 91.261 65.4652 91.8643 65.4652 92.5567C65.4652 93.2491 66.0686 93.8525 66.7609 93.8525H74.2486C74.9509 93.8525 75.5443 93.2491 75.5443 92.5567C75.4454 91.7555 74.842 91.261 74.2486 91.261Z" fill="black"/>
<path d="M99.2043 74.9901H84.229V42.5371H85.5247C86.227 42.5371 86.8205 41.9337 86.8205 41.2413C86.8205 40.5489 86.2171 39.9456 85.5247 39.9456H55.5742C54.8719 39.9456 54.2784 40.5489 54.2784 41.2413C54.2784 41.9337 54.8818 42.5371 55.5742 42.5371H56.8699V70.0939L49.9857 65.1978C49.4911 64.901 48.8877 64.901 48.4921 65.2967L40.8956 71.4985C40.5989 71.6963 40.5 72.1018 40.5 72.4975V98.7586C40.5 99.4609 41.1034 100.054 41.7957 100.054H99.2043C99.9065 100.054 100.5 99.451 100.5 98.7586V76.2957C100.401 75.5934 99.7977 75 99.2043 75V74.9901ZM42.9926 73.091L49.2834 67.7992L56.6721 73.091V97.453H42.9926V73.091ZM59.2735 42.5371H81.7364V97.4431H59.2735V42.5371ZM84.229 97.4431V77.4728H97.9085V97.4431H84.229Z" fill="black"/>
<path d="M51.7857 73.7935H47.9875C47.2852 73.7935 46.6918 74.3968 46.6918 75.0892C46.6918 75.7816 47.2951 76.3849 47.9875 76.3849H51.7857C52.488 76.3849 53.0815 75.7816 53.0815 75.0892C53.0815 74.3968 52.3792 73.7935 51.7857 73.7935Z" fill="black"/>
<path d="M51.7857 82.4771H47.9875C47.2852 82.4771 46.6918 83.0804 46.6918 83.7728C46.6918 84.4652 47.2951 85.0685 47.9875 85.0685H51.7857C52.488 85.0685 53.0815 84.4652 53.0815 83.7728C53.0815 83.0804 52.3792 82.4771 51.7857 82.4771Z" fill="black"/>
<path d="M51.7857 91.261H47.9875C47.2852 91.261 46.6918 91.8643 46.6918 92.5567C46.6918 93.2491 47.2951 93.8525 47.9875 93.8525H51.7857C52.488 93.8525 53.0815 93.2491 53.0815 92.5567C52.9826 91.7555 52.3792 91.261 51.7857 91.261Z" fill="black"/>
<path d="M94.2094 82.4771H87.9186C87.2163 82.4771 86.6229 83.0804 86.6229 83.7728C86.6229 84.4652 87.2262 85.0685 87.9186 85.0685H94.2094C94.9117 85.0685 95.5052 84.4652 95.5052 83.7728C95.5052 83.0804 94.8029 82.4771 94.2094 82.4771Z" fill="black"/>
<path d="M94.2094 89.9653H87.9186C87.2163 89.9653 86.6229 90.5687 86.6229 91.2611C86.6229 91.9535 87.2262 92.5568 87.9186 92.5568H94.2094C94.9117 92.5568 95.5052 91.9535 95.5052 91.2611C95.4062 90.5588 94.8029 89.9653 94.2094 89.9653Z" fill="black"/>
</svg>
