<svg width="148" height="55" viewBox="0 0 148 55" fill="none" xmlns="http://www.w3.org/2000/svg">
<g clip-path="url(#clip0_87_1901)">
<path d="M38.655 18.7222V0.0515137H47.9909C50.1939 0.0515137 51.8181 0.631499 52.8623 1.79147C53.9065 2.95144 54.428 4.50685 54.428 6.45886C54.428 7.71511 54.1094 8.81777 53.471 9.76454C52.8337 10.7113 51.9637 11.4174 50.861 11.8805C51.1315 12.0937 51.3493 12.3298 51.5132 12.5911C51.6771 12.8524 51.8559 13.2147 52.0497 13.6789L54.2527 18.7234H49.3813L47.294 13.9689C47.1198 13.5631 46.8974 13.2685 46.6269 13.0851C46.3564 12.9017 45.9701 12.81 45.4669 12.81H43.3212V18.7245H38.6538L38.655 18.7222ZM43.3224 9.21207H46.7725C47.6803 9.21207 48.3909 8.98512 48.9033 8.53122C49.4156 8.07732 49.6713 7.38615 49.6713 6.45771C49.6713 4.58365 48.7726 3.6449 46.9754 3.6449H43.3224V9.21207Z" fill="white"/>
<path d="M56.8053 18.7222V0.0515137H61.4727V18.7234H56.8053V18.7222Z" fill="white"/>
<path d="M64.4299 18.7222V0.0515137H78.2017V3.64719H69.0973V7.56152H77.1288V11.2145H69.0973V15.1288H78.2017V18.7245H64.4299V18.7222Z" fill="white"/>
<path d="M80.4334 18.7222V0.0515137H84.4348L92.3792 11.2134V0.0515137H97.0764V18.7234H93.0463L85.1019 7.59017V18.7234H80.4345L80.4334 18.7222Z" fill="white"/>
<path d="M100.033 18.7222V0.0515137H108.121C110.015 0.0515137 111.61 0.365577 112.906 0.993703C114.2 1.62183 115.187 2.62706 115.863 4.0094C116.539 5.39173 116.877 7.22338 116.877 9.50321C116.877 12.7115 116.138 15.0509 114.659 16.5192C113.181 17.9886 111.002 18.7222 108.121 18.7222H100.033ZM104.7 15.1265H107.483C108.488 15.1265 109.333 14.9775 110.019 14.6772C110.705 14.3781 111.228 13.8221 111.585 13.0106C111.943 12.1991 112.122 11.03 112.122 9.50206C112.122 7.97416 111.962 6.76261 111.644 5.92128C111.325 5.07996 110.822 4.49081 110.136 4.15267C109.45 3.81454 108.566 3.6449 107.484 3.6449H104.701V15.1265H104.7Z" fill="white"/>
<path d="M119.256 18.7222V0.0515137H123.923V15.1277H132.738V18.7234H119.256V18.7222Z" fill="white"/>
<path d="M135.839 18.7222V11.8507L129.142 0.0515137H134.012L138.188 7.79305L142.363 0.0515137H147.235L140.537 11.8518V18.7234H135.84L135.839 18.7222Z" fill="white"/>
<path d="M43.7281 44.3309C40.5394 44.3309 38.1105 43.5148 36.4405 41.8826C34.7705 40.2504 33.936 37.9821 33.936 35.0753C33.936 32.1685 34.7521 29.688 36.3843 28.0283C38.0165 26.3686 40.4545 25.5376 43.7006 25.5376C44.8136 25.5376 45.8096 25.6224 46.6865 25.7921C47.5634 25.9617 48.4081 26.1886 49.2196 26.4718V30.4629C47.5783 29.7832 45.8521 29.4439 44.0399 29.4439C42.2277 29.4439 40.7709 29.8967 39.894 30.8022C39.0172 31.7077 38.5782 33.1324 38.5782 35.0764C38.5782 37.0204 39.0401 38.2847 39.9651 39.1523C40.8889 40.02 42.2667 40.4544 44.0972 40.4544C44.9844 40.4544 45.8612 40.3742 46.7289 40.2137C47.5966 40.0533 48.4368 39.8034 49.2483 39.4641V43.4827C48.4563 43.7475 47.6161 43.955 46.7289 44.1051C45.8417 44.2564 44.8422 44.3321 43.7293 44.3321L43.7281 44.3309Z" fill="white"/>
<path d="M51.5671 44.0479V25.8208H56.1233V33.0385H63.2562V25.8208H67.8124V44.0479H63.2562V36.8302H56.1233V44.0479H51.5671Z" fill="white"/>
<path d="M70.1346 44.0479L77.0967 25.8208H82.0209L88.983 44.0479H84.2285L82.5871 39.9158H76.5019L74.8891 44.0479H70.1346ZM77.1254 36.5471H81.9647L79.5313 30.2074L77.1254 36.5471Z" fill="white"/>
<path d="M91.3041 44.0479V25.8208H100.418C102.569 25.8208 104.153 26.387 105.172 27.5195C106.191 28.652 106.7 30.1707 106.7 32.0768C106.7 33.3033 106.388 34.3784 105.766 35.3034C105.143 36.2284 104.294 36.9162 103.219 37.3701C103.483 37.5775 103.695 37.8091 103.855 38.0635C104.016 38.318 104.19 38.6722 104.379 39.1249L106.53 44.0491H101.776L99.7379 39.4069C99.5683 39.0103 99.3505 38.7237 99.0869 38.5438C98.8221 38.365 98.445 38.2744 97.9544 38.2744H95.8603V44.0479H91.3029H91.3041ZM95.8614 34.7647H99.229C100.115 34.7647 100.81 34.5435 101.309 34.0999C101.809 33.6563 102.059 32.9824 102.059 32.0768C102.059 30.2463 101.182 29.3317 99.4273 29.3317H95.8614V34.7659V34.7647Z" fill="white"/>
<path d="M117.683 44.3309C114.532 44.3309 112.135 43.5343 110.494 41.9388C108.853 40.3444 108.032 38.0944 108.032 35.1887C108.032 32.2831 108.871 29.7832 110.551 28.0845C112.231 26.3858 114.702 25.5376 117.966 25.5376C119.079 25.5376 120.084 25.6041 120.981 25.7359C121.877 25.8677 122.731 26.066 123.543 26.3308V30.2371C122.731 29.9356 121.886 29.7282 121.009 29.6147C120.133 29.5012 119.23 29.445 118.307 29.445C116.344 29.445 114.915 29.9116 114.019 30.8457C113.122 31.7799 112.674 33.2276 112.674 35.1899C112.674 36.9826 113.098 38.3087 113.948 39.1661C114.797 40.0246 116.051 40.4544 117.712 40.4544C118.805 40.4544 119.824 40.3031 120.769 40.0017V36.5493H116.835V33.6906H124.59V42.7194C123.948 43.1343 123.057 43.508 121.916 43.8369C120.774 44.167 119.363 44.3321 117.684 44.3321L117.683 44.3309Z" fill="white"/>
<path d="M126.909 44.0479V25.8208H140.353V29.3305H131.465V33.1508H139.305V36.7167H131.465V40.5371H140.353V44.0468H126.909V44.0479Z" fill="white"/>
<path d="M11.7327 28.0571V46.9318L0.0790889 30.2314L0 13.1757C0 5.89957 5.89957 0 13.1757 0H34.1045L25.6202 12.284L17.5726 12.3849C14.369 12.425 11.7808 15.012 11.7395 18.2157L11.7315 18.8747L18.2764 18.7968" fill="white"/>
<path d="M35.363 12.4113L26.8203 12.3254L32.4287 4.29956H35.363V12.4113Z" fill="white"/>
<path d="M21.1156 18.8416L14.2154 28.3804H19.4169L14.2154 37.1535L25.0288 25.5721H20.8027L26.9063 18.8416" fill="white"/>
<path d="M42.5773 54.0189C42.3607 54.1267 41.9286 54.2355 41.3738 54.2355C40.0889 54.2355 39.1215 53.424 39.1215 51.9294C39.1215 50.4347 40.0889 49.5349 41.5022 49.5349C42.0707 49.5349 42.4283 49.6564 42.5842 49.7378L42.4421 50.2181C42.2186 50.1103 41.9011 50.0289 41.5228 50.0289C40.4545 50.0289 39.7439 50.7121 39.7439 51.9087C39.7439 53.0251 40.3869 53.7415 41.4953 53.7415C41.8541 53.7415 42.2186 53.667 42.4558 53.5524L42.5773 54.0189Z" fill="white"/>
<path d="M43.9023 49.6094V51.5167H46.1077V49.6094H46.7026V54.1679H46.1077V52.0302H43.9023V54.1679H43.3143V49.6094H43.9023Z" fill="white"/>
<path d="M48.4608 52.734L47.9875 54.1679H47.3788L48.9273 49.6094H49.638L51.1934 54.1679H50.5641L50.077 52.734H48.4608ZM49.9555 52.2743L49.5096 50.9619C49.4076 50.6639 49.34 50.3934 49.2724 50.1298H49.2586C49.191 50.4003 49.1165 50.6776 49.0282 50.955L48.5823 52.2743H49.9555Z" fill="white"/>
<path d="M51.8617 49.6701C52.1597 49.6093 52.5849 49.575 52.9907 49.575C53.62 49.575 54.0257 49.6896 54.31 49.9475C54.5404 50.1504 54.6687 50.461 54.6687 50.8129C54.6687 51.4146 54.2905 51.8135 53.8102 51.9763V51.9969C54.1621 52.1184 54.3719 52.4428 54.4796 52.9162C54.6286 53.5523 54.7364 53.9913 54.8315 54.1678H54.2229C54.1484 54.0395 54.0475 53.6475 53.918 53.0789C53.7827 52.4497 53.5397 52.2135 53.0044 52.1929H52.4497V54.1678H51.8617V49.6701ZM52.4497 51.747H53.0514C53.6807 51.747 54.0796 51.402 54.0796 50.8816C54.0796 50.2936 53.6532 50.0357 53.0308 50.03C52.7465 50.03 52.5437 50.0575 52.4497 50.0839V51.7482V51.747Z" fill="white"/>
<path d="M58.99 53.9651C58.7264 54.0602 58.206 54.215 57.5905 54.215C56.9004 54.215 56.3319 54.0396 55.886 53.6132C55.494 53.235 55.2499 52.6263 55.2499 51.9157C55.2568 50.5563 56.1898 49.5625 57.7188 49.5625C58.2461 49.5625 58.6587 49.6771 58.8547 49.7723L58.7126 50.2525C58.4696 50.1448 58.1647 50.0565 57.7051 50.0565C56.5955 50.0565 55.8723 50.7465 55.8723 51.8893C55.8723 53.0321 56.5692 53.729 57.6306 53.729C58.0157 53.729 58.2793 53.6751 58.4146 53.6075V52.2481H57.4884V51.7747H58.99V53.9663V53.9651Z" fill="white"/>
<path d="M60.4778 49.6094V54.1679H59.8898V49.6094H60.4778Z" fill="white"/>
<path d="M61.5059 54.1679V49.6094H62.149L63.6104 51.9156C63.9485 52.4497 64.2121 52.93 64.4288 53.3965L64.4425 53.3896C64.3887 52.781 64.3749 52.2262 64.3749 51.5167V49.6094H64.9297V54.1679H64.3348L62.8871 51.8548C62.5696 51.347 62.2647 50.8267 62.0355 50.3326L62.0148 50.3395C62.0492 50.9149 62.0618 51.4617 62.0618 52.2193V54.1667H61.5071L61.5059 54.1679Z" fill="white"/>
<path d="M69.4251 53.9651C69.1615 54.0602 68.6411 54.215 68.0256 54.215C67.3356 54.215 66.767 54.0396 66.3212 53.6132C65.9292 53.235 65.685 52.6263 65.685 51.9157C65.6919 50.5563 66.6249 49.5625 68.154 49.5625C68.6812 49.5625 69.0939 49.6771 69.2899 49.7723L69.1477 50.2525C68.9047 50.1448 68.5998 50.0565 68.1402 50.0565C67.0307 50.0565 66.3074 50.7465 66.3074 51.8893C66.3074 53.0321 67.0043 53.729 68.0657 53.729C68.4508 53.729 68.7145 53.6751 68.8497 53.6075V52.2481H67.9236V51.7747H69.4251V53.9663V53.9651Z" fill="white"/>
<path d="M72.3457 50.1103H70.9588V49.6094H74.3332V50.1103H72.9394V54.1679H72.3445V50.1103H72.3457Z" fill="white"/>
<path d="M75.4301 49.6094V51.5167H77.6355V49.6094H78.2303V54.1679H77.6355V52.0302H75.4301V54.1679H74.8421V49.6094H75.4301Z" fill="white"/>
<path d="M81.6105 52.0314H79.8385V53.6751H81.8134V54.1691H79.2505V49.6106H81.7125V50.1046H79.8396V51.5454H81.6117V52.0325L81.6105 52.0314Z" fill="white"/>
<path d="M84.0107 49.6094H86.4659V50.1034H84.5987V51.6187H86.3238V52.1058H84.5987V54.169H84.0107V49.6105V49.6094Z" fill="white"/>
<path d="M87.8929 49.6094V52.3076C87.8929 53.3288 88.3457 53.7621 88.9543 53.7621C89.6306 53.7621 90.0639 53.3162 90.0639 52.3076V49.6094H90.6588V52.2674C90.6588 53.667 89.9217 54.2424 88.9337 54.2424C88.0007 54.2424 87.2969 53.7082 87.2969 52.295V49.6105H87.8918L87.8929 49.6094Z" fill="white"/>
<path d="M92.5454 50.1103H91.1585V49.6094H94.533V50.1103H93.1392V54.1679H92.5443V50.1103H92.5454Z" fill="white"/>
<path d="M95.6299 49.6094V52.3076C95.6299 53.3288 96.0827 53.7621 96.6913 53.7621C97.3676 53.7621 97.8008 53.3162 97.8008 52.3076V49.6094H98.3957V52.2674C98.3957 53.667 97.6587 54.2424 96.6707 54.2424C95.7376 54.2424 95.0339 53.7082 95.0339 52.295V49.6105H95.6288L95.6299 49.6094Z" fill="white"/>
<path d="M99.4159 49.6701C99.7139 49.6093 100.139 49.575 100.545 49.575C101.174 49.575 101.58 49.6896 101.864 49.9475C102.095 50.1504 102.223 50.461 102.223 50.8129C102.223 51.4146 101.845 51.8135 101.364 51.9763V51.9969C101.716 52.1184 101.926 52.4428 102.034 52.9162C102.183 53.5523 102.291 53.9913 102.386 54.1678H101.777C101.703 54.0395 101.602 53.6475 101.472 53.0789C101.337 52.4497 101.094 52.2135 100.559 52.1929H100.004V54.1678H99.4159V49.6701ZM100.004 51.747H100.606C101.235 51.747 101.634 51.402 101.634 50.8816C101.634 50.2936 101.207 50.0357 100.585 50.03C100.301 50.03 100.098 50.0575 100.004 50.0839V51.7482V51.747Z" fill="white"/>
<path d="M105.415 52.0314H103.643V53.6751H105.618V54.1691H103.055V49.6106H105.517V50.1046H103.644V51.5454H105.416V52.0325L105.415 52.0314Z" fill="white"/>
<path d="M105.949 55C106.098 54.6011 106.281 53.8778 106.355 53.3838L107.018 53.3162C106.862 53.8916 106.565 54.6423 106.375 54.9598L105.948 55H105.949Z" fill="white"/>
<path d="M109.776 50.1103H108.39V49.6094H111.764V50.1103H110.37V54.1679H109.775V50.1103H109.776Z" fill="white"/>
<path d="M115.986 51.8411C115.986 53.4103 115.032 54.2424 113.868 54.2424C112.705 54.2424 111.819 53.3094 111.819 51.9294C111.819 50.4817 112.719 49.5349 113.936 49.5349C115.153 49.5349 115.986 50.4886 115.986 51.8411ZM112.448 51.9156C112.448 52.8899 112.976 53.7622 113.903 53.7622C114.83 53.7622 115.364 52.9036 115.364 51.8686C115.364 50.9619 114.891 50.0152 113.91 50.0152C112.929 50.0152 112.448 50.915 112.448 51.9156Z" fill="white"/>
<path d="M120.219 53.9651C119.955 54.0602 119.435 54.215 118.819 54.215C118.129 54.215 117.562 54.0396 117.115 53.6132C116.723 53.235 116.478 52.6263 116.478 51.9157C116.485 50.5563 117.418 49.5625 118.947 49.5625C119.475 49.5625 119.887 49.6771 120.083 49.7723L119.941 50.2525C119.698 50.1448 119.393 50.0565 118.934 50.0565C117.824 50.0565 117.101 50.7465 117.101 51.8893C117.101 53.0321 117.798 53.729 118.859 53.729C119.244 53.729 119.508 53.6751 119.643 53.6075V52.2481H118.717V51.7747H120.219V53.9663V53.9651Z" fill="white"/>
<path d="M123.478 52.0314H121.706V53.6751H123.681V54.1691H121.118V49.6106H123.58V50.1046H121.707V51.5454H123.48V52.0325L123.478 52.0314Z" fill="white"/>
<path d="M125.419 50.1103H124.032V49.6094H127.406V50.1103H126.013V54.1679H125.418V50.1103H125.419Z" fill="white"/>
<path d="M128.502 49.6094V51.5167H130.708V49.6094H131.302V54.1679H130.708V52.0302H128.502V54.1679H127.914V49.6094H128.502Z" fill="white"/>
<path d="M134.684 52.0314H132.912V53.6751H134.887V54.1691H132.324V49.6106H134.786V50.1046H132.913V51.5454H134.685V52.0325L134.684 52.0314Z" fill="white"/>
<path d="M135.65 49.6701C135.948 49.6093 136.373 49.575 136.779 49.575C137.408 49.575 137.814 49.6896 138.098 49.9475C138.329 50.1504 138.457 50.461 138.457 50.8129C138.457 51.4146 138.079 51.8135 137.599 51.9763V51.9969C137.95 52.1184 138.16 52.4428 138.268 52.9162C138.417 53.5523 138.525 53.9913 138.62 54.1678H138.011C137.937 54.0395 137.836 53.6475 137.706 53.0789C137.571 52.4497 137.328 52.2135 136.793 52.1929H136.238V54.1678H135.65V49.6701ZM136.238 51.747H136.84C137.469 51.747 137.868 51.402 137.868 50.8816C137.868 50.2936 137.442 50.0357 136.819 50.03C136.535 50.03 136.332 50.0575 136.238 50.0839V51.7482V51.747Z" fill="white"/>
<path d="M139.126 53.816C139.126 53.5662 139.295 53.3896 139.532 53.3896C139.77 53.3896 139.931 53.565 139.931 53.816C139.931 54.0671 139.775 54.2424 139.525 54.2424C139.288 54.2424 139.126 54.0602 139.126 53.816Z" fill="white"/>
</g>
<defs>
<clipPath id="clip0_87_1901">
<rect width="147.234" height="55" fill="white"/>
</clipPath>
</defs>
</svg>
