<svg width="141" height="140" viewBox="0 0 141 140" fill="none" xmlns="http://www.w3.org/2000/svg">
<rect x="0.5" width="140" height="140" rx="70" fill="#DEE7FA"/>
<path d="M99.3032 97.3822H95.5049V71.2299C95.5049 70.5276 94.9016 69.9341 94.2092 69.9341H73.042V41.2793C73.042 40.3792 72.043 39.6868 71.1429 40.1814L46.1874 53.9598C45.7918 54.1577 45.5841 54.5632 45.5841 55.0578V97.3921H41.7957C41.0935 97.3921 40.5 97.9954 40.5 98.6878C40.5 99.3802 41.1034 99.9836 41.7957 99.9836H99.2043C99.9065 99.9836 100.5 99.3802 100.5 98.6878C100.5 97.9954 99.8966 97.3921 99.3032 97.3921V97.3822ZM76.8403 97.3822V87.402C76.8403 84.6028 79.0361 82.4069 81.8353 82.4069C84.6345 82.4069 86.8304 84.6028 86.8304 87.402V97.3822H76.8502H76.8403ZM89.3229 97.3822V87.402C89.3229 83.307 85.9303 79.9143 81.8353 79.9143C77.7404 79.9143 74.3477 83.307 74.3477 87.402V97.3822H48.0865V55.6512L70.5495 43.2773V71.1309C70.5495 71.8332 71.1528 72.4267 71.8452 72.4267H93.0124V97.3822H89.3229Z" fill="black"/>
<path d="M63.061 59.9438H56.7702C56.0679 59.9438 55.4744 60.5472 55.4744 61.2396V67.4315C55.4744 68.1338 56.0778 68.7272 56.7702 68.7272H63.061C63.7632 68.7272 64.3567 68.1239 64.3567 67.4315V61.1407C64.3567 60.5373 63.7534 59.9438 63.061 59.9438ZM61.8641 66.2346H58.0758V62.4364H61.8641V66.2346Z" fill="black"/>
<path d="M63.061 72.4265H56.7702C56.0679 72.4265 55.4744 73.0299 55.4744 73.7223V80.0131C55.4744 80.7153 56.0778 81.3088 56.7702 81.3088H63.061C63.7632 81.3088 64.3567 80.7054 64.3567 80.0131V73.7223C64.3567 73.02 63.7534 72.4265 63.061 72.4265ZM61.8641 78.7173H58.0758V74.9191H61.8641V78.7173Z" fill="black"/>
<path d="M63.061 84.9089H56.7702C56.0679 84.9089 55.4744 85.5123 55.4744 86.2047V92.3966C55.4744 93.0988 56.0778 93.6923 56.7702 93.6923H63.061C63.7632 93.6923 64.3567 93.089 64.3567 92.3966V86.1058C64.3567 85.5024 63.7534 84.9089 63.061 84.9089ZM61.8641 91.1997H58.0758V87.4015H61.8641V91.1997Z" fill="black"/>
</svg>
