<svg width="32" height="32" viewBox="0 0 32 32" fill="none" xmlns="http://www.w3.org/2000/svg">
<rect width="32" height="32" rx="16" fill="url(#paint0_linear_87_1823)"/>
<path fill-rule="evenodd" clip-rule="evenodd" d="M27.0179 14.4431C27.0179 9.51272 22.0756 5.49988 15.9976 5.49988C9.91965 5.49988 4.97726 9.51272 4.97726 14.4431C4.97726 18.8632 8.89906 22.567 14.1936 23.2666C14.553 23.3433 15.0417 23.5062 15.1639 23.8104C15.2512 24.1356 15.2635 24.4764 15.1998 24.807C15.1998 24.807 15.0705 25.5833 15.0441 25.751L15.0397 25.7763C14.9872 26.0745 14.8554 26.8243 16.0024 26.3427C17.1835 25.8468 22.3487 22.6078 24.6606 19.9461C26.2585 18.1948 27.0227 16.4172 27.0227 14.4359L27.0179 14.4431ZM13.7592 12.0594H12.9878C12.9306 12.0594 12.8758 12.0822 12.8353 12.1226C12.7949 12.163 12.7722 12.2179 12.7722 12.2751V17.0665C12.7722 17.1237 12.7949 17.1786 12.8353 17.219C12.8758 17.2594 12.9306 17.2821 12.9878 17.2821H13.7592C13.8164 17.2821 13.8712 17.2594 13.9117 17.219C13.9521 17.1786 13.9748 17.1237 13.9748 17.0665V12.2751C13.9748 12.2179 13.9521 12.163 13.9117 12.1226C13.8712 12.0822 13.8164 12.0594 13.7592 12.0594ZM18.3133 12.0594H19.0847C19.113 12.0594 19.1411 12.065 19.1672 12.0759C19.1934 12.0867 19.2171 12.1026 19.2372 12.1226C19.2572 12.1426 19.2731 12.1664 19.2839 12.1926C19.2948 12.2187 19.3003 12.2468 19.3003 12.2751V17.0881C19.3003 17.1164 19.2948 17.1444 19.2839 17.1706C19.2731 17.1967 19.2572 17.2205 19.2372 17.2405C19.2171 17.2606 19.1934 17.2765 19.1672 17.2873C19.1411 17.2981 19.113 17.3037 19.0847 17.3037H18.3756C18.3572 17.305 18.3388 17.305 18.3205 17.3037H18.3061H18.2941C18.2731 17.2892 18.2545 17.2714 18.239 17.251L16.0374 14.2755V17.1264C16.0374 17.1836 16.0146 17.2384 15.9742 17.2789C15.9338 17.3193 15.8789 17.342 15.8217 17.342H15.0479C15.0197 17.342 14.9918 17.3364 14.9658 17.3256C14.9397 17.3147 14.9161 17.2988 14.8963 17.2787C14.8765 17.2587 14.8608 17.2349 14.8502 17.2088C14.8397 17.1826 14.8344 17.1546 14.8347 17.1264V12.335C14.8344 12.3068 14.8397 12.2788 14.8502 12.2526C14.8608 12.2265 14.8765 12.2027 14.8963 12.1826C14.9161 12.1626 14.9397 12.1467 14.9658 12.1358C14.9918 12.1249 15.0197 12.1193 15.0479 12.1193H15.8816V12.1337L15.8984 12.1553L18.0977 15.1284V12.2751C18.0977 12.2179 18.1204 12.163 18.1608 12.1226C18.2013 12.0822 18.2561 12.0594 18.3133 12.0594ZM11.8982 16.0891H9.7971V12.2751C9.7971 12.2179 9.77438 12.163 9.73394 12.1226C9.69351 12.0822 9.63867 12.0594 9.58149 12.0594H8.81006C8.75287 12.0594 8.69804 12.0822 8.65761 12.1226C8.61717 12.163 8.59445 12.2179 8.59445 12.2751V17.0665C8.59485 17.1218 8.61626 17.1749 8.65435 17.2151C8.69446 17.2531 8.74756 17.2746 8.80288 17.2749H11.8982C11.9549 17.2743 12.0091 17.2513 12.0491 17.211C12.089 17.1706 12.1114 17.1161 12.1114 17.0593V16.2855C12.1114 16.229 12.0889 16.1747 12.0489 16.1347C12.0089 16.0948 11.9547 16.0723 11.8982 16.0723V16.0891ZM23.4299 13.2466C23.4037 13.2571 23.3758 13.2624 23.3476 13.2621L21.2417 13.2406V14.0527H23.3428C23.4 14.0527 23.4548 14.0754 23.4952 14.1158C23.5357 14.1563 23.5584 14.2111 23.5584 14.2683V15.0397C23.5584 15.0969 23.5357 15.1518 23.4952 15.1922C23.4548 15.2326 23.4 15.2554 23.3428 15.2554H21.2417V16.0675H23.35C23.3782 16.0672 23.4061 16.0725 23.4323 16.083C23.4584 16.0936 23.4822 16.1093 23.5023 16.1291C23.5223 16.1489 23.5383 16.1725 23.5491 16.1986C23.56 16.2246 23.5656 16.2525 23.5656 16.2807V17.0545C23.5656 17.1117 23.5429 17.1666 23.5024 17.207C23.462 17.2474 23.4072 17.2702 23.35 17.2702H20.2619C20.2066 17.2698 20.1535 17.2483 20.1133 17.2103C20.0941 17.1907 20.0788 17.1675 20.0685 17.142C20.0583 17.1165 20.0531 17.0892 20.0534 17.0617V12.2703C20.053 12.2152 20.0735 12.1621 20.1109 12.1217C20.1503 12.0821 20.2037 12.0597 20.2595 12.0594H23.3476C23.4048 12.0594 23.4596 12.0822 23.5 12.1226C23.5405 12.163 23.5632 12.2179 23.5632 12.2751V13.0489C23.5632 13.0771 23.5576 13.105 23.5467 13.131C23.5359 13.1571 23.5199 13.1807 23.4999 13.2005C23.4798 13.2203 23.456 13.236 23.4299 13.2466Z" fill="white"/>
<defs>
<linearGradient id="paint0_linear_87_1823" x1="7.26432e-08" y1="5" x2="29" y2="29" gradientUnits="userSpaceOnUse">
<stop stop-color="#38D0DD"/>
<stop offset="1" stop-color="#104ED8"/>
</linearGradient>
</defs>
</svg>
