<svg width="141" height="140" viewBox="0 0 141 140" fill="none" xmlns="http://www.w3.org/2000/svg">
<rect x="0.5" width="140" height="140" rx="70" fill="#DEE7FA"/>
<path d="M99.2043 70.0495C99.9065 70.0495 100.5 69.4461 100.5 68.7537V61.2661C100.5 60.5638 99.8966 59.9704 99.2043 59.9704H90.7176L71.7463 50.4847V47.4877H80.5297C81.232 47.4877 81.8254 46.8843 81.8254 46.1919V41.1969C81.8254 40.4946 81.2221 39.9011 80.5297 39.9011H70.5495C69.8472 39.9011 69.2537 40.5045 69.2537 41.1969V50.3858L50.2824 59.8714H41.7957C41.0935 59.8714 40.5 60.4748 40.5 61.1672V68.6548C40.5 69.3571 41.1034 69.9506 41.7957 69.9506H46.7908V97.5075H41.7957C41.0935 97.5075 40.5 98.1108 40.5 98.8032C40.5 99.4956 41.1034 100.099 41.7957 100.099H99.2043C99.9065 100.099 100.5 99.4956 100.5 98.8032C100.5 98.1108 99.8966 97.5075 99.2043 97.5075H94.2092V70.0495H99.2043ZM79.2339 45.094H71.7463V42.6014H79.2339V45.094ZM70.4505 52.6805L85.1291 60.0693H55.772L70.4505 52.6805ZM42.9926 62.5619H97.8986V67.5569H42.9926V62.5619ZM49.2834 70.0495H56.771V97.5075H49.2834V70.0495ZM59.2636 97.5075V70.0495H69.2438V97.5075H59.2636ZM71.7463 97.5075V70.0495H81.7265V97.5075H71.7463ZM91.7166 97.5075H84.229V70.0495H91.7166V97.5075Z" fill="black"/>
</svg>
