<svg width="141" height="140" viewBox="0 0 141 140" fill="none" xmlns="http://www.w3.org/2000/svg">
<rect x="0.5" width="140" height="140" rx="70" fill="#DEE7FA"/>
<path d="M100.49 49.0855V41.3022C100.49 40.6064 99.8936 40 99.1879 40H41.8022C41.0964 40 40.5 40.5964 40.5 41.3022V49.0855C40.5 51.9781 42.001 54.5726 44.2972 56.0736C44.2972 56.2724 44.2972 54.3738 44.2972 97.3956H41.8022C41.1064 97.3956 40.5 97.992 40.5 98.6978C40.5 99.4036 41.0964 100 41.8022 100H99.1978C99.8936 100 100.5 99.4036 100.5 98.6978C100.5 97.992 99.9036 97.3956 99.1978 97.3956H96.7028C96.7028 54.3738 96.7028 56.2724 96.7028 56.0736C98.999 54.5726 100.5 51.9781 100.5 49.0855H100.49ZM83.6213 49.0855C83.6213 52.3757 80.9274 54.9702 77.7366 54.9702C74.5457 54.9702 71.8519 52.2763 71.8519 49.0855V42.495H83.7306V49.0855H83.6312H83.6213ZM69.3469 49.0855C69.3469 52.3757 66.6531 54.9702 63.4622 54.9702C60.2714 54.9702 57.5775 52.2763 57.5775 49.0855V42.495H69.4563V49.0855H69.3569H69.3469ZM43.0944 42.495H54.9732V49.0855C54.9732 52.3757 52.2793 54.9702 49.0885 54.9702C45.8976 54.9702 43.0944 52.2763 43.0944 49.0855V42.495ZM75.5398 97.3956V69.9404H88.0149V97.3956H75.5398ZM94.3072 97.3956H90.5099V68.7475C90.5099 68.0517 89.9135 67.4453 89.2078 67.4453H74.2376C73.5417 67.4453 72.9354 68.0417 72.9354 68.7475V97.3956H46.8916V57.167C50.4901 58.161 54.2773 56.5706 56.2753 53.4692C57.7763 55.8648 60.4702 57.4652 63.4622 57.4652C66.4543 57.4652 69.1481 55.8648 70.6491 53.4692C72.1501 55.8648 74.8439 57.4652 77.836 57.4652C80.828 57.4652 83.5219 55.8648 85.0229 53.4692C87.0209 56.66 90.8082 58.161 94.4066 57.167V97.3956H94.3072ZM97.995 49.0855C97.995 52.3757 95.3012 54.9702 92.1103 54.9702C88.9195 54.9702 86.2256 52.2763 86.2256 49.0855V42.495H98.005V49.0855H97.995Z" fill="black"/>
<path d="M69.3462 67.4456H51.881C51.1852 67.4456 50.5788 68.042 50.5788 68.7477V83.7179C50.5788 84.4137 51.1752 85.0201 51.881 85.0201H69.3462C70.042 85.0201 70.6484 84.4237 70.6484 83.7179V68.7477C70.549 68.0519 69.9526 67.4456 69.3462 67.4456ZM68.044 82.4157H53.0738V69.9406H68.044V82.4157Z" fill="black"/>
</svg>
